<svg width="16" height="16" viewBox="0 0 16 16" fill="none" xmlns="http://www.w3.org/2000/svg">
<path d="M7.50012 1.00391C7.13153 1.0039 6.76284 1.14288 6.4845 1.42122L4.57174 3.33398H3.5802L3.55872 3.22005C3.42434 2.51583 2.80245 2.00065 2.08541 2.00065H1.16679C1.10053 1.99971 1.03475 2.01195 0.973268 2.03666C0.911784 2.06137 0.855823 2.09805 0.808638 2.14457C0.761453 2.19109 0.723985 2.24653 0.698411 2.30766C0.672838 2.36879 0.659668 2.43439 0.659668 2.50065C0.659668 2.56691 0.672838 2.63252 0.698411 2.69364C0.723985 2.75477 0.761453 2.81021 0.808638 2.85673C0.855823 2.90325 0.911784 2.93993 0.973268 2.96464C1.03475 2.98935 1.10053 3.00159 1.16679 3.00065H2.08541C2.32805 3.00065 2.53032 3.16829 2.57629 3.4069L2.6759 3.92773L3.75077 9.57292C3.94515 10.5914 4.8425 11.334 5.87968 11.334H12.1206C13.1577 11.334 14.0555 10.5917 14.2495 9.57292L15.3243 3.92773C15.3381 3.85546 15.3358 3.78102 15.3175 3.70975C15.2992 3.63848 15.2654 3.57212 15.2185 3.51541C15.1717 3.4587 15.1128 3.41303 15.0463 3.38167C14.9797 3.35031 14.907 3.33403 14.8335 3.33398H13.3738L11.7664 1.72591C11.2555 1.21502 10.4121 1.21502 9.90116 1.72591L9.3608 2.26628L8.51575 1.42188L8.5151 1.42122C8.23697 1.1432 7.86843 1.00391 7.50012 1.00391ZM7.50012 1.9974C7.61065 1.99743 7.72095 2.04106 7.80807 2.12826L9.01314 3.33398H5.98645L7.19153 2.12826C7.27886 2.04093 7.3896 1.99736 7.50012 1.9974ZM10.8335 2.33594C10.914 2.33594 10.9948 2.36839 11.0594 2.43294L11.9598 3.33398H10.4285L10.0678 2.97331L10.6082 2.43294C10.6727 2.36839 10.7529 2.33594 10.8335 2.33594ZM3.77096 4.33398H13.0926C13.1469 4.34302 13.2023 4.34302 13.2566 4.33398H14.2293L13.267 9.38607C13.1617 9.93927 12.6841 10.334 12.1206 10.334H5.87968C5.31639 10.334 4.83905 9.93925 4.7332 9.38607V9.38542L3.77096 4.33398ZM6.66679 12.0007C6.40157 12.0007 6.14722 12.106 5.95968 12.2935C5.77215 12.4811 5.66679 12.7354 5.66679 13.0007C5.66679 13.2659 5.77215 13.5202 5.95968 13.7078C6.14722 13.8953 6.40157 14.0007 6.66679 14.0007C6.93201 14.0007 7.18636 13.8953 7.3739 13.7078C7.56143 13.5202 7.66679 13.2659 7.66679 13.0007C7.66679 12.7354 7.56143 12.4811 7.3739 12.2935C7.18636 12.106 6.93201 12.0007 6.66679 12.0007ZM11.3335 12.0007C11.0682 12.0007 10.8139 12.106 10.6263 12.2935C10.4388 12.4811 10.3335 12.7354 10.3335 13.0007C10.3335 13.2659 10.4388 13.5202 10.6263 13.7078C10.8139 13.8953 11.0682 14.0007 11.3335 14.0007C11.5987 14.0007 11.853 13.8953 12.0406 13.7078C12.2281 13.5202 12.3335 13.2659 12.3335 13.0007C12.3335 12.7354 12.2281 12.4811 12.0406 12.2935C11.853 12.106 11.5987 12.0007 11.3335 12.0007Z" fill="#1A1A1A"/>
</svg>
